<svg width="122" height="121" viewBox="0 0 122 121" fill="none" xmlns="http://www.w3.org/2000/svg">
<path d="M121 60.6129C121 51.1172 118.74 41.7578 114.407 33.3083C110.074 24.8587 103.793 17.5617 96.0814 12.0203C88.3703 6.47893 79.451 2.85225 70.0609 1.44003C60.6708 0.0278112 51.0794 0.870607 42.0794 3.89876L60.9231 59.904C61.0356 59.8661 61.1555 59.8556 61.2729 59.8732C61.3903 59.8909 61.5018 59.9362 61.5982 60.0055C61.6945 60.0747 61.7731 60.166 61.8272 60.2716C61.8814 60.3772 61.9096 60.4942 61.9096 60.6129H121Z" fill="#002150" fill-opacity="0.73" stroke="white"/>
<path d="M42.0794 3.89876C35.1751 6.22181 28.753 9.78603 23.1291 14.4161L60.6863 60.0354C60.7566 59.9775 60.8368 59.933 60.9231 59.9039L42.0794 3.89876Z" fill="#002150" fill-opacity="0.98" stroke="white"/>
<path d="M23.1291 14.4161C14.372 21.6255 7.84449 31.1754 4.30729 41.9527C0.77008 52.73 0.368927 64.2906 3.15058 75.2872C5.93223 86.2837 11.7821 96.2631 20.0183 104.062C28.2545 111.861 38.5378 117.159 49.6696 119.337L61.018 61.3469C60.8789 61.3197 60.7503 61.2535 60.6474 61.156C60.5444 61.0585 60.4713 60.9338 60.4365 60.7963C60.4018 60.6588 60.4068 60.5143 60.451 60.3796C60.4952 60.2449 60.5768 60.1255 60.6863 60.0354L23.1291 14.4161Z" fill="#002150" fill-opacity="0.09" stroke="white"/>
<path d="M49.6696 119.337C63.7372 122.09 78.3256 119.702 90.7808 112.606L61.5319 61.2628C61.3762 61.3515 61.1939 61.3814 61.018 61.3469L49.6696 119.337Z" fill="#002150" fill-opacity="0.32" stroke="white"/>
<path d="M90.7808 112.606C99.9585 107.378 107.589 99.8138 112.896 90.6817C118.204 81.5496 121 71.1754 121 60.6129H61.9097C61.9097 60.7449 61.8747 60.8746 61.8084 60.9887C61.742 61.1029 61.6466 61.1974 61.5319 61.2628L90.7808 112.606Z" fill="#002150" fill-opacity="0.55" stroke="white"/>
</svg>
