<?xml version="1.0" encoding="utf-8"?>
<!-- Generator: Adobe Illustrator 23.0.0, SVG Export Plug-In . SVG Version: 6.00 Build 0)  -->
<svg version="1.1" id="Layer_1" xmlns="http://www.w3.org/2000/svg" xmlns:xlink="http://www.w3.org/1999/xlink" x="0px" y="0px"
	 viewBox="0 0 200 200" style="enable-background:new 0 0 200 200;" xml:space="preserve">
<style type="text/css">
	.st0{fill:#FFFFFF;}
	.st1{fill:#FF0000;}
</style>
<path class="st0" d="M179.3,64.3c4.9,10.9,7.7,23,7.7,35.7c0,48-39,87-87,87c-48,0-87-39-87-87c0-48,39-87,87-87
	c12.9,0,25.2,2.8,36.3,7.9c1.1-3.2,2.6-6.2,4.5-8.9c-12.4-5.8-26.2-9-40.8-9C46.5,3,3,46.5,3,100c0,53.5,43.5,97,97,97
	c53.5,0,97-43.5,97-97c0-14.3-3.1-27.9-8.7-40.1C185.6,61.8,182.6,63.3,179.3,64.3z"/>
<circle class="st1" cx="168.8" cy="31.8" r="30"/>
<g>
	<path class="st0" d="M100.3,134.5L100.3,134.5c-7.1,0-12.9-5.8-12.9-12.9V45.4c0-7.1,5.8-12.9,12.9-12.9h0
		c7.1,0,12.9,5.8,12.9,12.9v76.1C113.3,128.7,107.5,134.5,100.3,134.5z"/>
	<path class="st0" d="M99.7,167.5L99.7,167.5c-7.2,0-13-5.8-13-13v0c0-7.2,5.8-13,13-13h0c7.2,0,13,5.8,13,13v0
		C112.7,161.7,106.9,167.5,99.7,167.5z"/>
</g>
</svg>
