<svg id="Grupo_Datco" data-name="Grupo Datco" xmlns="http://www.w3.org/2000/svg" viewBox="0 0 199.19 66.19"><defs><style>.cls-1{fill:#fff;}</style></defs><title>gd-ima_h-one_stroke-dark</title><path class="cls-1" d="M83.66,40.15a5.12,5.12,0,0,1-7.28.16c-1.31-1.31-1.31-2.68-1.31-5.64s0-4.32,1.31-5.63a4.93,4.93,0,0,1,3.56-1.45,4.74,4.74,0,0,1,4.87,4.17H83.32a3.42,3.42,0,0,0-5.79-1.84c-.88.9-1,1.84-1,4.75s.09,3.88,1,4.78a3.5,3.5,0,0,0,5-.22,3.63,3.63,0,0,0,.78-2.52V35.65H79.94V34.34h4.91v2.21A4.82,4.82,0,0,1,83.66,40.15Z"/><path class="cls-1" d="M96.9,41.64l-3.17-6.19H90.38v6.19H88.9V27.71h5.34c2.42,0,4.13,1.46,4.13,3.87a3.63,3.63,0,0,1-3,3.74l3.31,6.32ZM94.1,29H90.38v5.1H94.1c1.62,0,2.78-.84,2.78-2.54A2.47,2.47,0,0,0,94.1,29Z"/><path class="cls-1" d="M106.58,41.75A4.59,4.59,0,0,1,101.73,37V27.71h1.48v9.21a3.38,3.38,0,1,0,6.75,0V27.71h1.49V37A4.61,4.61,0,0,1,106.58,41.75Z"/><path class="cls-1" d="M120.27,35.9h-3.7v5.74h-1.48V27.71h5.18a4.1,4.1,0,1,1,0,8.19ZM120.13,29h-3.56v5.53h3.56a2.64,2.64,0,0,0,3-2.77C123.09,30,121.87,29,120.13,29Z"/><path class="cls-1" d="M135.51,40.31a5.12,5.12,0,0,1-7.12,0c-1.32-1.31-1.32-2.68-1.32-5.64s0-4.32,1.32-5.63a5.1,5.1,0,0,1,7.12,0c1.31,1.31,1.31,2.68,1.31,5.63S136.82,39,135.51,40.31Zm-1.16-10.39a3.33,3.33,0,0,0-2.4-1,3.37,3.37,0,0,0-2.41,1c-.88.9-1,1.84-1,4.75s.1,3.86,1,4.76a3.4,3.4,0,0,0,2.41,1,3.36,3.36,0,0,0,2.4-1c.88-.9,1-1.84,1-4.76S135.23,30.82,134.35,29.92Z"/><path class="cls-1" d="M149.61,40.31a5.07,5.07,0,0,1-3.68,1.33h-5V27.71h5A5.07,5.07,0,0,1,149.61,29c1.56,1.56,1.41,3.48,1.41,5.57S151.17,38.74,149.61,40.31ZM147.71,31a2.44,2.44,0,0,0-2-.86h-2.06v9.08h2.06a2.41,2.41,0,0,0,2-.86c.51-.63.59-1.62.59-3.74S148.22,31.62,147.71,31Z"/><path class="cls-1" d="M161.72,41.64l-.83-2.47h-4.95l-.84,2.47h-2.83l5.06-13.93h2.14l5.08,13.93Zm-3.25-9.82-1.76,5.06h3.46Z"/><path class="cls-1" d="M170.22,30.13V41.64H167.5V30.13h-3.64V27.71h10v2.42Z"/><path class="cls-1" d="M180.92,41.75a5.12,5.12,0,0,1-3.76-1.52c-1.4-1.41-1.37-3.15-1.37-5.56s0-4.15,1.37-5.55a5.13,5.13,0,0,1,3.76-1.53,4.92,4.92,0,0,1,5.13,4.4h-2.76a2.32,2.32,0,0,0-2.35-2,2.25,2.25,0,0,0-1.74.73c-.53.59-.69,1.25-.69,3.93s.16,3.35.69,3.93a2.25,2.25,0,0,0,1.74.73,2.31,2.31,0,0,0,2.35-2h2.76A4.92,4.92,0,0,1,180.92,41.75Z"/><path class="cls-1" d="M197.8,40.23a5,5,0,0,1-3.75,1.52,5.07,5.07,0,0,1-3.78-1.52c-1.41-1.41-1.37-3.15-1.37-5.56s0-4.15,1.37-5.55a5.08,5.08,0,0,1,3.78-1.53,5,5,0,0,1,3.75,1.53c1.41,1.4,1.39,3.15,1.39,5.55S199.21,38.82,197.8,40.23Zm-2-9.47a2.27,2.27,0,0,0-1.74-.75,2.33,2.33,0,0,0-1.77.75c-.52.59-.66,1.23-.66,3.91s.14,3.33.66,3.91a2.33,2.33,0,0,0,1.77.75,2.27,2.27,0,0,0,1.74-.75c.52-.58.68-1.23.68-3.91S196.31,31.35,195.79,30.76Z"/><path class="cls-1" d="M33.12,11.33a4.31,4.31,0,0,0-3.31,1.44l-2.56,2.56,10.1,10.09,2.56-2.56a4.24,4.24,0,0,0,1.43-3.3c-.08-1.52-1.56-3-3.47-4.95S34.64,11.41,33.12,11.33Z"/><path class="cls-1" d="M64.34,28.49,37.7,1.85A6.65,6.65,0,0,0,28.31,2L2,28.31a6.64,6.64,0,0,0-.19,9.39L28.49,64.34a6.64,6.64,0,0,0,9.38-.19L64.16,37.88A6.66,6.66,0,0,0,64.34,28.49Zm-34.1,8.06a7.11,7.11,0,0,1-5,2.12c-2.61,0-4-1.36-6.92-4.31S14,30.06,14,27.44a7,7,0,0,1,2.12-5,6.7,6.7,0,0,1,9-.72L23.66,23.2a4.74,4.74,0,0,0-6.21.56A4.8,4.8,0,0,0,16,27.16c0,1.78.85,2.81,3.76,5.72s3.95,3.76,5.73,3.77a4.94,4.94,0,0,0,4.83-5.26,5.14,5.14,0,0,0-1.73-3.3L27.58,27l-3.42,3.43-1.31-1.31,4.91-4.91,2.2,2.2a6.78,6.78,0,0,1,2.4,4.78A7.11,7.11,0,0,1,30.24,36.55ZM42,24.54l-4.89,4.89L23.25,15.55l4.89-4.89a7,7,0,0,1,4.91-2.29c3,0,4.93,2.11,6.94,4.12s4.32,4.13,4.32,7.14A7.08,7.08,0,0,1,42,24.54Z"/></svg>