<?xml version="1.0" encoding="utf-8"?>
<!-- Generator: Adobe Illustrator 23.0.0, SVG Export Plug-In . SVG Version: 6.00 Build 0)  -->
<svg version="1.1" id="Grupo_Datco" xmlns="http://www.w3.org/2000/svg" xmlns:xlink="http://www.w3.org/1999/xlink" x="0px"
	 y="0px" viewBox="0 0 66.2 66.2" style="enable-background:new 0 0 66.2 66.2;" xml:space="preserve">
<style type="text/css">
	.st0{fill:#FFFFFF;}
</style>
<title>gd-ima_h-one_stroke-dark</title>
<path class="st0" d="M33.2,11.3c-1.3,0-2.5,0.5-3.3,1.4l-2.6,2.6l10.1,10.1l2.6-2.6c0.9-0.8,1.5-2,1.4-3.3c-0.1-1.5-1.6-3-3.5-4.9
	S34.7,11.4,33.2,11.3z"/>
<path class="st0" d="M64.4,28.5L37.7,1.9c-2.6-2.5-6.8-2.5-9.4,0.1L2,28.3c-2.6,2.5-2.7,6.7-0.2,9.4c0,0,0,0,0,0l26.7,26.6
	c2.6,2.5,6.8,2.4,9.4-0.2l26.3-26.3C66.8,35.3,66.9,31.2,64.4,28.5z M30.3,36.6c-1.3,1.3-3.1,2.1-5,2.1c-2.6,0-4-1.4-6.9-4.3
	S14,30.1,14,27.5c0-1.9,0.8-3.7,2.1-5c2.4-2.5,6.3-2.8,9-0.7l-1.5,1.5c-1.9-1.4-4.6-1.2-6.2,0.6c-0.9,0.9-1.4,2.1-1.5,3.4
	c0,1.8,0.9,2.8,3.8,5.7s4,3.8,5.7,3.8c2.7-0.1,4.9-2.3,4.8-5c0-0.1,0-0.1,0-0.2c-0.1-1.3-0.8-2.5-1.7-3.3l-1-1.1l-3.4,3.4l-1.3-1.3
	l4.9-4.9l2.2,2.2c1.4,1.2,2.3,2.9,2.4,4.8C32.5,33.2,31.7,35.2,30.3,36.6z M42,24.6l-4.9,4.9L23.3,15.6l4.9-4.9
	c1.3-1.4,3-2.2,4.9-2.3c3,0,4.9,2.1,6.9,4.1s4.3,4.1,4.3,7.1C44.3,21.5,43.4,23.3,42,24.6z"/>
</svg>
