<svg width="83" height="82" viewBox="0 0 83 82" fill="none" xmlns="http://www.w3.org/2000/svg">
<path d="M79 40C79 31.5175 76.1619 23.2789 70.9376 16.5962C65.7133 9.91338 58.4032 5.17073 50.1715 3.12344C41.9398 1.07615 33.2597 1.84194 25.5136 5.29888C17.7675 8.75581 11.4007 14.7051 7.42719 22.1994L17.499 27.5396C20.2805 22.2936 24.7372 18.1291 30.1595 15.7092C35.5818 13.2894 41.6578 12.7533 47.4201 14.1864C53.1823 15.6195 58.2993 18.9394 61.9563 23.6173C65.6133 28.2953 67.6 34.0623 67.6 40H79Z" fill="#002150" stroke="white"/>
<path d="M7.42717 22.1993C4.72387 27.2979 3.21732 32.9452 3.02181 38.7127C2.82631 44.4802 3.947 50.2166 6.29884 55.4865C8.65068 60.7563 12.1719 65.4214 16.5953 69.1276C21.0188 72.8338 26.2283 75.4838 31.8285 76.8766C37.4288 78.2695 43.2727 78.3685 48.9169 77.1662C54.5612 75.9639 59.8574 73.4918 64.4039 69.9376C68.9503 66.3834 72.6276 61.8403 75.1566 56.6532C77.6856 51.466 79 45.7709 79 40H67.6C67.6 44.0396 66.6799 48.0262 64.9096 51.6572C63.1393 55.2882 60.5652 58.4684 57.3827 60.9563C54.2002 63.4443 50.4928 65.1747 46.5419 66.0163C42.5909 66.858 38.5001 66.7886 34.58 65.8137C30.6598 64.8387 27.0132 62.9837 23.9167 60.3893C20.8203 57.795 18.3555 54.5294 16.7092 50.8405C15.0629 47.1516 14.2784 43.1362 14.4153 39.0989C14.5521 35.0616 15.6067 31.1085 17.499 27.5396L7.42717 22.1993Z" fill="#002150" fill-opacity="0.4" stroke="white"/>
</svg>
