<?xml version="1.0" encoding="utf-8"?>
<!-- Generator: Adobe Illustrator 23.0.0, SVG Export Plug-In . SVG Version: 6.00 Build 0)  -->
<svg version="1.1" id="Layer_1" xmlns="http://www.w3.org/2000/svg" xmlns:xlink="http://www.w3.org/1999/xlink" x="0px" y="0px"
	 viewBox="0 0 200 200" style="enable-background:new 0 0 200 200;" xml:space="preserve">
<style type="text/css">
	.st0{fill:#FFFFFF;}
	.st1{fill:#FF0000;}
</style>
<g>
	<path class="st0" d="M116.5,104h-2.7c11.4,3.1,21.9,8.6,30.9,15.8c24,10.3,41.4,33.2,44,60.4c-2.7,0.7-6.5,1.5-11.8,2.3
		c0.1,1.5,0.1,3,0.1,4.6v1.6l-1.4,0.9c-0.3,0.2-4.2,2.6-17.3,5c33.1-2.5,40.7-7.5,40.7-7.5v0C199,141.2,162,104,116.5,104z"/>
	<path class="st0" d="M114.3,7L114.3,7c-2.9,0-5.7,0.4-8.4,1.1c4.4,2.3,8.2,5.4,11.3,9.1c11.4,1.5,20.3,11.3,20.3,23.1v21.4
		c0,11.8-8.9,21.6-20.3,23.1c-3.1,3.8-7,6.9-11.3,9.1c2.7,0.7,5.5,1.1,8.4,1.1h0c18.4,0,33.3-14.9,33.3-33.3V40.3
		C147.5,21.9,132.6,7,114.3,7z"/>
	<path class="st0" d="M174,187.1c0,0-13.8,8.9-84.8,8.9s-84.8-8.9-84.8-8.9v0c0-45.9,37-83.1,82.5-83.1h4.4
		C137,104,174,141.2,174,187.1L174,187.1z"/>
	<path class="st0" d="M89.3,95L89.3,95C70.9,95,56,80.1,56,61.7V40.3C56,21.9,70.9,7,89.2,7h0c18.4,0,33.3,14.9,33.3,33.3v21.4
		C122.5,80.1,107.6,95,89.3,95z"/>
</g>
<g>
	<rect x="94" y="-33.5" transform="matrix(0.7071 -0.7071 0.7071 0.7071 -41.4213 100.0001)" class="st1" width="12" height="267"/>
</g>
<g>
	<rect x="-33.5" y="94" transform="matrix(0.7071 -0.7071 0.7071 0.7071 -41.4213 100.0079)" class="st1" width="267" height="12"/>
</g>
</svg>
