<?xml version="1.0" encoding="utf-8"?>
<!-- Generator: Adobe Illustrator 23.0.0, SVG Export Plug-In . SVG Version: 6.00 Build 0)  -->
<svg version="1.1" id="Layer_1" xmlns="http://www.w3.org/2000/svg" xmlns:xlink="http://www.w3.org/1999/xlink" x="0px" y="0px"
	 viewBox="0 0 200 200" style="enable-background:new 0 0 200 200;" xml:space="preserve">
<style type="text/css">
	.st0{fill:#FFFFFF;}
</style>
<path class="st0" d="M195.5,187.1c0,0-15.5,8.9-95.5,8.9s-95.5-8.9-95.5-8.9v0c0-45.9,41.6-83.1,93-83.1h5
	C153.9,104,195.5,141.2,195.5,187.1L195.5,187.1z"/>
<path class="st0" d="M100,95L100,95c-20.7,0-37.5-16.8-37.5-37.5v-13C62.5,23.8,79.3,7,100,7h0c20.7,0,37.5,16.8,37.5,37.5v13
	C137.5,78.2,120.7,95,100,95z"/>
</svg>
