<?xml version="1.0" encoding="utf-8"?>
<!-- Generator: Adobe Illustrator 23.0.0, SVG Export Plug-In . SVG Version: 6.00 Build 0)  -->
<svg version="1.1" id="Layer_1" xmlns="http://www.w3.org/2000/svg" xmlns:xlink="http://www.w3.org/1999/xlink" x="0px" y="0px"
	 viewBox="0 0 200 200" style="enable-background:new 0 0 200 200;" xml:space="preserve">
<style type="text/css">
	.st0{fill:#FFFFFF;}
</style>
<path class="st0" d="M173.5,100c0-7.2-1-14.1-3-20.7L188,67.4l-15.4-26.6l-18.9,9.1c-9.6-10.3-22.2-17.9-36.4-21.3l-1.6-21.1H85
	l-1.6,20.9c-14.2,3.3-26.9,10.7-36.6,20.9l-19.1-9.2L12.4,66.7l17.3,11.8c-2.1,6.8-3.2,14-3.2,21.5c0,7.2,1,14.1,3,20.7L12,132.6
	l15.4,26.6l18.9-9.1c9.6,10.3,22.2,17.9,36.4,21.3l1.6,21.1H115l1.6-20.9c14.2-3.3,26.9-10.7,36.6-20.9l19.1,9.2l15.4-26.6
	l-17.3-11.8C172.4,114.7,173.5,107.5,173.5,100z M100,135.6c-19.7,0-35.6-16-35.6-35.6c0-19.7,16-35.6,35.6-35.6
	c19.7,0,35.6,16,35.6,35.6C135.6,119.7,119.7,135.6,100,135.6z"/>
</svg>
