<?xml version="1.0" encoding="utf-8"?>
<!-- Generator: Adobe Illustrator 23.0.0, SVG Export Plug-In . SVG Version: 6.00 Build 0)  -->
<svg version="1.1" id="Layer_1" xmlns="http://www.w3.org/2000/svg" xmlns:xlink="http://www.w3.org/1999/xlink" x="0px" y="0px"
	 viewBox="0 0 200 200" style="enable-background:new 0 0 200 200;" xml:space="preserve">
<style type="text/css">
	.st0{fill:#FFFFFF;}
</style>
<g>
	<path class="st0" d="M189,171H11c-5,0-9-4-9-9V38c0-5,4-9,9-9h178c5,0,9,4,9,9v124C198,167,194,171,189,171z M12,161h176V39H12V161
		z"/>
</g>
<g>
	<path class="st0" d="M80.3,130.3c0,0-4.9,3.2-30,3.2s-30-3.2-30-3.2l0,0c0-16.3,13.1-29.4,29.3-29.4H51
		C67.2,100.9,80.3,114.1,80.3,130.3L80.3,130.3z"/>
	<path class="st0" d="M50.3,97.7L50.3,97.7c-6.5,0-11.8-5.3-11.8-11.8v-7.6c0-6.5,5.3-11.8,11.8-11.8l0,0c6.5,0,11.8,5.3,11.8,11.8
		v7.6C62,92.4,56.8,97.7,50.3,97.7z"/>
</g>
<g>
	<path class="st0" d="M100,144c-1.4,0-2.5-1.1-2.5-2.5v-83c0-1.4,1.1-2.5,2.5-2.5s2.5,1.1,2.5,2.5v83C102.5,142.9,101.4,144,100,144
		z"/>
</g>
<g>
	<path class="st0" d="M169.7,148h-49.4c-4,0-7.3-3.3-7.3-7.3V59.3c0-4,3.3-7.3,7.3-7.3h49.4c4,0,7.3,3.3,7.3,7.3v81.4
		C177,144.7,173.7,148,169.7,148z M120.3,57c-1.3,0-2.3,1-2.3,2.3v81.4c0,1.3,1,2.3,2.3,2.3h49.4c1.3,0,2.3-1,2.3-2.3V59.3
		c0-1.3-1-2.3-2.3-2.3H120.3z"/>
</g>
</svg>
